<?xml version="1.0" encoding="utf-8"?>
<!-- Generator: Adobe Illustrator 22.0.0, SVG Export Plug-In . SVG Version: 6.00 Build 0)  -->
<svg version="1.1" id="Layer_1" xmlns="http://www.w3.org/2000/svg" xmlns:xlink="http://www.w3.org/1999/xlink" x="0px" y="0px"
	 viewBox="0 0 1296 1728" style="enable-background:new 0 0 1296 1728;" xml:space="preserve">
<style type="text/css">
	.st0{fill:#5881FF;}
	.st1{font-family:'Square721BT-Roman';}
	.st2{font-size:577.9521px;}
	.st3{font-family:'Square721BT-Bold';}
	.st4{font-size:468.4601px;}
	.st5{fill:#FFFFFF;}
	.st6{font-size:94.8279px;}
	.st7{fill:#FFFFFF;stroke:#FFFFFF;stroke-width:0.5;stroke-miterlimit:10;}
	.st8{font-size:104.4276px;}
	.st9{font-size:122.4553px;}
</style>
<g>
	<text transform="matrix(1 0 0 1 623.9844 706.3165)" class="st0 st1 st2">ui</text>
	<g>
		<g>
			<path class="st0" d="M428.5,534.7h116.5v26c0,26.9-1.6,45.9-4.7,57c-3.1,11.1-8.4,19.8-15.9,26.2c-8.1,6.8-17.7,11.6-28.8,14.4
				c-11.1,2.8-30,4.2-56.7,4.2h-37c-3.2,0-5.9-0.1-8.8-0.1v43.9h48.6c56.4,0,95.8-10.5,118-31.6c22.2-21.1,33.3-58.5,33.3-112.3
				v-70.3H428.5V534.7z"/>
			<path class="st0" d="M556.2,302.3c-24.6-17.6-62.7-26.4-114.4-26.4h-48.6v43.9c3,0,5.7-0.1,8.8-0.1h37c41.4,0,69.4,5.7,84.1,17.1
				c14.7,11.4,22,31.6,22,60.5v5.1h48v-17.8C593,347.4,580.8,319.9,556.2,302.3z"/>
		</g>
		<text transform="matrix(1.4083 0 0 1 75.6328 612.7784)" class="st0 st3 st4">{</text>
	</g>
</g>
<g>
	<text transform="matrix(1 0 0 1 353.2009 838.7328)" class="st5 st1 st6">webdesigner</text>
	<g>
		<text transform="matrix(1.8486 0 0 1 936.6531 840.5668)" class="st7 st1 st8">/</text>
		<text transform="matrix(1 0 0 1 995.1414 848.185)" class="st7 st3 st9">&gt;</text>
	</g>
	<text transform="matrix(1 0 0 1 252.8279 848.185)" class="st7 st3 st9">&lt;</text>
</g>
</svg>
